# xmcd
#
# Track frame offsets: 
#        150
#        15440
#        37287
#        54016
#        72385
#        93544
#        109482
#        124508
#        138935
#        153989
#        175593
#        191330
#
# Disc length: 2935 seconds
#
# Revision: 0
# Processed by: cddbd v1.5.2PL0 Copyright (c) Steve Scherf et al.
# Submitted via: ExactAudioCopy v0.99pb3
#
DISCID=990b750c
DTITLE=Medi And The Medicine Show - Medi And The Medicine Show
DYEAR=2006
DGENRE=Rock
TTITLE0=Yeah Yeah
TTITLE1=Tears To Cry
TTITLE2=Dreamer Awake
TTITLE3=Monday Boy
TTITLE4=December In Paris
TTITLE5=Black Hole Day
TTITLE6=On The Top Of The World
TTITLE7=Don'T Get Any Closer
TTITLE8=Where The Sun Goes
TTITLE9=Running Away
TTITLE10=Sadness
TTITLE11=Roofs And Rafters
EXTD=
EXTT0=
EXTT1=
EXTT2=
EXTT3=
EXTT4=
EXTT5=
EXTT6=
EXTT7=
EXTT8=
EXTT9=
EXTT10=
EXTT11=
PLAYORDER=
